<mxfile host="65bd71144e">
    <diagram name="main" id="_o2L3f9pjlHrbbuKHUoa">
        <mxGraphModel dx="4710" dy="994" grid="1" gridSize="10" guides="1" tooltips="1" connect="1" arrows="1" fold="1" page="1" pageScale="1" pageWidth="1500" pageHeight="1000" math="0" shadow="0">
            <root>
                <mxCell id="XLajMpSWsyHqntTYuPn4-0"/>
                <mxCell id="XLajMpSWsyHqntTYuPn4-1" parent="XLajMpSWsyHqntTYuPn4-0"/>
                <mxCell id="jsm4oV-d1xH6QYawm0KN-131" value="" style="group" parent="XLajMpSWsyHqntTYuPn4-1" vertex="1" connectable="0">
                    <mxGeometry x="-1710" y="160" width="3470" height="1677" as="geometry"/>
                </mxCell>
                <mxCell id="cuHU_jUuGtvRVOGaUER6-110" value="" style="verticalLabelPosition=bottom;sketch=0;aspect=fixed;html=1;verticalAlign=top;strokeColor=none;align=center;outlineConnect=0;shape=mxgraph.citrix.web_server;hachureGap=4;jiggle=2;curveFitting=1;fontFamily=Architects Daughter;fontSource=https%3A%2F%2Ffonts.googleapis.com%2Fcss%3Ffamily%3DArchitects%2BDaughter;fontSize=20;" parent="jsm4oV-d1xH6QYawm0KN-131" vertex="1">
                    <mxGeometry y="760" width="306.01" height="360" as="geometry"/>
                </mxCell>
                <mxCell id="qZs_2gLDXwpBYbbK-WQE-96" value="&lt;font style=&quot;font-size: 20px;&quot; color=&quot;#ffffff&quot;&gt;&lt;b&gt;API Server&lt;/b&gt;&lt;/font&gt;" style="sketch=0;points=[[0,0,0],[0.25,0,0],[0.5,0,0],[0.75,0,0],[1,0,0],[0,1,0],[0.25,1,0],[0.5,1,0],[0.75,1,0],[1,1,0],[0,0.25,0],[0,0.5,0],[0,0.75,0],[1,0.25,0],[1,0.5,0],[1,0.75,0]];outlineConnect=0;fontColor=#232F3E;gradientColor=#945DF2;gradientDirection=north;fillColor=#5A30B5;strokeColor=#ffffff;dashed=0;verticalLabelPosition=bottom;verticalAlign=top;align=center;html=1;fontSize=12;fontStyle=0;aspect=fixed;shape=mxgraph.aws4.resourceIcon;resIcon=mxgraph.aws4.api_gateway;direction=east;rotation=0;flipH=0;" parent="jsm4oV-d1xH6QYawm0KN-131" vertex="1">
                    <mxGeometry x="1034" y="1281" width="396" height="396" as="geometry"/>
                </mxCell>
                <mxCell id="qZs_2gLDXwpBYbbK-WQE-98" value="&lt;h1&gt;&lt;font style=&quot;font-size: 20px;&quot;&gt;&lt;b&gt;Update master token&lt;/b&gt;&lt;/font&gt;&lt;/h1&gt;" style="aspect=fixed;html=1;points=[];align=center;image;fontSize=12;image=img/lib/azure2/storage/Storage_Sync_Services.svg;fontColor=#FFFFFF;" parent="jsm4oV-d1xH6QYawm0KN-131" vertex="1">
                    <mxGeometry x="1030" y="330" width="400" height="333.33" as="geometry"/>
                </mxCell>
                <mxCell id="88" value="" style="rhombus;whiteSpace=wrap;html=1;verticalAlign=bottom;fillColor=#60a917;strokeColor=#2D7600;fontColor=#ffffff;sketch=0;dashed=0;fontStyle=0;container=0;" parent="jsm4oV-d1xH6QYawm0KN-131" vertex="1">
                    <mxGeometry x="2430" y="440" width="120" height="120" as="geometry"/>
                </mxCell>
                <mxCell id="91" value="&lt;h1&gt;&lt;font style=&quot;font-size: 15px;&quot;&gt;GetMasterTokenController&lt;/font&gt;&lt;/h1&gt;" style="text;strokeColor=none;align=center;fillColor=none;html=1;verticalAlign=middle;whiteSpace=wrap;rounded=0;labelBackgroundColor=none;fontFamily=Helvetica;fontSize=5;fontColor=#FFFFFF;container=0;" parent="jsm4oV-d1xH6QYawm0KN-131" vertex="1">
                    <mxGeometry x="2430" y="560" width="120" height="80" as="geometry"/>
                </mxCell>
                <mxCell id="c1xkClsVmjrqYPxNuD0H-108" value="" style="edgeStyle=none;html=1;fontFamily=Helvetica;fontSize=8;fontColor=#FF0000;fillColor=#a20025;strokeColor=#6F0000;strokeWidth=4;exitX=0.5;exitY=0;exitDx=0;exitDy=0;entryX=0.5;entryY=1;entryDx=0;entryDy=0;" parent="jsm4oV-d1xH6QYawm0KN-131" source="c1xkClsVmjrqYPxNuD0H-101" edge="1">
                    <mxGeometry relative="1" as="geometry">
                        <mxPoint x="1870" y="720" as="sourcePoint"/>
                        <mxPoint x="3170" y="200" as="targetPoint"/>
                    </mxGeometry>
                </mxCell>
                <mxCell id="33" value="" style="rhombus;whiteSpace=wrap;html=1;verticalAlign=bottom;fillColor=#60a917;strokeColor=#2D7600;fontColor=#ffffff;sketch=0;dashed=0;fontStyle=0;container=0;" parent="jsm4oV-d1xH6QYawm0KN-131" vertex="1">
                    <mxGeometry x="1710" y="440" width="120" height="120" as="geometry"/>
                </mxCell>
                <mxCell id="96" value="" style="edgeStyle=none;html=1;entryX=0;entryY=0.5;entryDx=0;entryDy=0;fillColor=#008a00;strokeColor=#005700;strokeWidth=4;" parent="jsm4oV-d1xH6QYawm0KN-131" source="qZs_2gLDXwpBYbbK-WQE-98" target="33" edge="1">
                    <mxGeometry relative="1" as="geometry">
                        <mxPoint x="1548" y="368.5714285714289" as="targetPoint"/>
                    </mxGeometry>
                </mxCell>
                <mxCell id="34" value="&lt;h1&gt;&lt;font style=&quot;font-size: 15px;&quot;&gt;SyncMasterTokenController&lt;/font&gt;&lt;/h1&gt;" style="text;strokeColor=none;align=center;fillColor=none;html=1;verticalAlign=middle;whiteSpace=wrap;rounded=0;labelBackgroundColor=none;fontFamily=Helvetica;fontSize=5;fontColor=#FFFFFF;container=0;" parent="jsm4oV-d1xH6QYawm0KN-131" vertex="1">
                    <mxGeometry x="1710" y="560" width="120" height="80" as="geometry"/>
                </mxCell>
                <mxCell id="c1xkClsVmjrqYPxNuD0H-121" value="&lt;h3&gt;&lt;br&gt;&lt;/h3&gt;" style="triangle;whiteSpace=wrap;html=1;verticalAlign=bottom;fillColor=#60a917;strokeColor=#2D7600;fontColor=#ffffff;sketch=0;dashed=0;fontStyle=0;container=0;" parent="jsm4oV-d1xH6QYawm0KN-131" vertex="1">
                    <mxGeometry x="2670" y="440" width="120" height="120" as="geometry"/>
                </mxCell>
                <mxCell id="c1xkClsVmjrqYPxNuD0H-125" value="" style="edgeStyle=none;html=1;strokeWidth=4;fillColor=#008a00;strokeColor=#005700;" parent="jsm4oV-d1xH6QYawm0KN-131" source="88" target="c1xkClsVmjrqYPxNuD0H-121" edge="1">
                    <mxGeometry relative="1" as="geometry">
                        <mxPoint x="2611.5873134218" y="734.4898187420417" as="targetPoint"/>
                    </mxGeometry>
                </mxCell>
                <mxCell id="c1xkClsVmjrqYPxNuD0H-122" value="&lt;h3&gt;&lt;span style=&quot;font-size: 15px;&quot;&gt;Section: 3 - store the master token and sleep for SLEEP_ON_SUCCESS&lt;/span&gt;&lt;br&gt;&lt;/h3&gt;" style="text;strokeColor=none;align=center;fillColor=none;html=1;verticalAlign=middle;whiteSpace=wrap;rounded=0;labelBackgroundColor=none;fontColor=#FFFFFF;container=0;" parent="jsm4oV-d1xH6QYawm0KN-131" vertex="1">
                    <mxGeometry x="2670" y="560" width="120" height="80" as="geometry"/>
                </mxCell>
                <mxCell id="c1xkClsVmjrqYPxNuD0H-101" value="" style="rhombus;whiteSpace=wrap;html=1;verticalAlign=bottom;fillColor=#60a917;strokeColor=#2D7600;fontColor=#ffffff;sketch=0;dashed=0;fontStyle=0;container=0;" parent="jsm4oV-d1xH6QYawm0KN-131" vertex="1">
                    <mxGeometry x="3110" y="440" width="120" height="120" as="geometry"/>
                </mxCell>
                <mxCell id="c1xkClsVmjrqYPxNuD0H-102" value="&lt;h1&gt;&lt;font style=&quot;font-size: 15px;&quot;&gt;GetMasterTokenFromRefreshController&lt;/font&gt;&lt;/h1&gt;" style="text;strokeColor=none;align=center;fillColor=none;html=1;verticalAlign=middle;whiteSpace=wrap;rounded=0;labelBackgroundColor=none;fontFamily=Helvetica;fontSize=5;fontColor=#FFFFFF;container=0;" parent="jsm4oV-d1xH6QYawm0KN-131" vertex="1">
                    <mxGeometry x="3110" y="560" width="120" height="80" as="geometry"/>
                </mxCell>
                <mxCell id="99" value="" style="group" parent="jsm4oV-d1xH6QYawm0KN-131" vertex="1" connectable="0">
                    <mxGeometry x="1950" y="440" width="120" height="200" as="geometry"/>
                </mxCell>
                <mxCell id="86" value="&lt;h3&gt;&lt;br&gt;&lt;/h3&gt;" style="triangle;whiteSpace=wrap;html=1;verticalAlign=bottom;fillColor=#60a917;strokeColor=#2D7600;fontColor=#ffffff;sketch=0;dashed=0;fontStyle=0;container=0;" parent="99" vertex="1">
                    <mxGeometry width="120" height="120" as="geometry"/>
                </mxCell>
                <mxCell id="87" value="&lt;h3&gt;&lt;font style=&quot;font-size: 15px;&quot;&gt;Section: 1 - keycloak - initialize http session&lt;/font&gt;&lt;/h3&gt;" style="text;strokeColor=none;align=center;fillColor=none;html=1;verticalAlign=middle;whiteSpace=wrap;rounded=0;labelBackgroundColor=none;fontColor=#FFFFFF;container=0;" parent="99" vertex="1">
                    <mxGeometry y="120" width="120" height="80" as="geometry"/>
                </mxCell>
                <mxCell id="94" value="" style="edgeStyle=none;html=1;entryX=0;entryY=0.5;entryDx=0;entryDy=0;fillColor=#008a00;strokeColor=#005700;strokeWidth=4;" parent="jsm4oV-d1xH6QYawm0KN-131" source="33" target="86" edge="1">
                    <mxGeometry relative="1" as="geometry">
                        <mxPoint x="1892.7272727272725" y="671.818181818182" as="targetPoint"/>
                    </mxGeometry>
                </mxCell>
                <mxCell id="100" value="" style="group" parent="jsm4oV-d1xH6QYawm0KN-131" vertex="1" connectable="0">
                    <mxGeometry x="2190" y="440" width="120" height="200" as="geometry"/>
                </mxCell>
                <mxCell id="101" value="&lt;h3&gt;&lt;br&gt;&lt;/h3&gt;" style="triangle;whiteSpace=wrap;html=1;verticalAlign=bottom;fillColor=#60a917;strokeColor=#2D7600;fontColor=#ffffff;sketch=0;dashed=0;fontStyle=0;container=0;" parent="100" vertex="1">
                    <mxGeometry width="120" height="120" as="geometry"/>
                </mxCell>
                <mxCell id="102" value="&lt;h3&gt;&lt;font style=&quot;font-size: 15px;&quot;&gt;Section: 2 - get and store master token for the first time or after an error&lt;/font&gt;&lt;/h3&gt;" style="text;strokeColor=none;align=center;fillColor=none;html=1;verticalAlign=middle;whiteSpace=wrap;rounded=0;labelBackgroundColor=none;fontColor=#FFFFFF;container=0;" parent="100" vertex="1">
                    <mxGeometry y="120" width="120" height="80" as="geometry"/>
                </mxCell>
                <mxCell id="90" value="" style="edgeStyle=none;jumpSize=20;html=1;strokeWidth=4;fontFamily=Helvetica;fontSize=15;fontColor=#FF0000;fillColor=#008a00;strokeColor=#005700;entryX=0;entryY=0.5;entryDx=0;entryDy=0;" parent="jsm4oV-d1xH6QYawm0KN-131" source="86" target="101" edge="1">
                    <mxGeometry relative="1" as="geometry">
                        <mxPoint x="1430" y="501" as="targetPoint"/>
                    </mxGeometry>
                </mxCell>
                <mxCell id="103" value="" style="group" parent="jsm4oV-d1xH6QYawm0KN-131" vertex="1" connectable="0">
                    <mxGeometry x="2910" y="440" width="120" height="200" as="geometry"/>
                </mxCell>
                <mxCell id="c1xkClsVmjrqYPxNuD0H-97" value="&lt;h3&gt;&lt;br&gt;&lt;/h3&gt;" style="triangle;whiteSpace=wrap;html=1;verticalAlign=bottom;fillColor=#60a917;strokeColor=#2D7600;fontColor=#ffffff;sketch=0;dashed=0;fontStyle=0;container=0;" parent="103" vertex="1">
                    <mxGeometry width="120" height="120" as="geometry"/>
                </mxCell>
                <mxCell id="c1xkClsVmjrqYPxNuD0H-98" value="&lt;h3&gt;&lt;font style=&quot;font-size: 15px;&quot;&gt;Section: 4 - next token update will be with the refresh token and update master token&lt;/font&gt;&lt;/h3&gt;" style="text;strokeColor=none;align=center;fillColor=none;html=1;verticalAlign=middle;whiteSpace=wrap;rounded=0;labelBackgroundColor=none;fontColor=#FFFFFF;container=0;" parent="103" vertex="1">
                    <mxGeometry y="120" width="120" height="80" as="geometry"/>
                </mxCell>
                <mxCell id="c1xkClsVmjrqYPxNuD0H-127" value="" style="edgeStyle=none;html=1;strokeWidth=4;entryX=0;entryY=0.5;entryDx=0;entryDy=0;fillColor=#008a00;strokeColor=#005700;" parent="jsm4oV-d1xH6QYawm0KN-131" source="c1xkClsVmjrqYPxNuD0H-121" target="c1xkClsVmjrqYPxNuD0H-97" edge="1">
                    <mxGeometry relative="1" as="geometry">
                        <mxPoint x="2893.636363636364" y="800" as="targetPoint"/>
                    </mxGeometry>
                </mxCell>
                <mxCell id="c1xkClsVmjrqYPxNuD0H-99" value="" style="edgeStyle=none;html=1;fontFamily=Helvetica;fontSize=5;fontColor=#FFFFFF;fillColor=#008a00;strokeColor=#005700;strokeWidth=4;" parent="jsm4oV-d1xH6QYawm0KN-131" source="c1xkClsVmjrqYPxNuD0H-97" target="c1xkClsVmjrqYPxNuD0H-101" edge="1">
                    <mxGeometry relative="1" as="geometry"/>
                </mxCell>
                <mxCell id="108" value="" style="edgeStyle=none;html=1;entryX=0.5;entryY=0;entryDx=0;entryDy=0;fillColor=#a20025;strokeColor=#6F0000;strokeWidth=3;" parent="jsm4oV-d1xH6QYawm0KN-131" source="105" target="101" edge="1">
                    <mxGeometry relative="1" as="geometry">
                        <mxPoint x="2200" y="140" as="targetPoint"/>
                        <Array as="points">
                            <mxPoint x="2250" y="140"/>
                        </Array>
                    </mxGeometry>
                </mxCell>
                <mxCell id="109" value="" style="group" parent="jsm4oV-d1xH6QYawm0KN-131" vertex="1" connectable="0">
                    <mxGeometry x="2760" y="80" width="120" height="200" as="geometry"/>
                </mxCell>
                <mxCell id="105" value="&lt;h3&gt;&lt;br&gt;&lt;/h3&gt;" style="triangle;whiteSpace=wrap;html=1;verticalAlign=bottom;fillColor=#a20025;strokeColor=#6F0000;fontColor=#ffffff;sketch=0;dashed=0;fontStyle=0;container=0;direction=west;" parent="109" vertex="1">
                    <mxGeometry width="120" height="120" as="geometry"/>
                </mxCell>
                <mxCell id="106" value="&lt;h3&gt;&lt;font style=&quot;font-size: 15px;&quot;&gt;Section: 4.1 - on failure - sleeo SLEEP_ON_FAILED and return to Section 2&lt;/font&gt;&lt;/h3&gt;" style="text;strokeColor=none;align=center;fillColor=none;html=1;verticalAlign=middle;whiteSpace=wrap;rounded=0;labelBackgroundColor=none;fontColor=#FFFFFF;container=0;" parent="109" vertex="1">
                    <mxGeometry y="120" width="120" height="80" as="geometry"/>
                </mxCell>
                <mxCell id="cPzZ6-SimsWvtrVy98jl-109" value="" style="group" parent="jsm4oV-d1xH6QYawm0KN-131" vertex="1" connectable="0">
                    <mxGeometry x="3090" width="160" height="200" as="geometry"/>
                </mxCell>
                <mxCell id="cPzZ6-SimsWvtrVy98jl-110" value="application/json" style="html=1;fillColor=none;strokeColor=none;fontSize=11;align=left;fontColor=#596780;whiteSpace=wrap;sketch=1;hachureGap=4;pointerEvents=0;fontFamily=Architects Daughter;fontSource=https%3A%2F%2Ffonts.googleapis.com%2Fcss%3Ffamily%3DArchitects%2BDaughter;labelBackgroundColor=none;container=0;" parent="cPzZ6-SimsWvtrVy98jl-109" vertex="1">
                    <mxGeometry width="160" height="40" as="geometry"/>
                </mxCell>
                <mxCell id="cPzZ6-SimsWvtrVy98jl-111" value="&lt;h1 style=&quot;font-family: Helvetica;&quot;&gt;&lt;font style=&quot;font-size: 15px;&quot;&gt;GetMasterTokenFromRefreshController&lt;/font&gt;&lt;/h1&gt;" style="rounded=1;arcSize=9;fillColor=#d80073;strokeColor=#A50040;html=1;strokeWidth=2;spacingLeft=5;fontColor=#ffffff;align=center;sketch=1;hachureGap=4;pointerEvents=0;fontFamily=Architects Daughter;fontSource=https%3A%2F%2Ffonts.googleapis.com%2Fcss%3Ffamily%3DArchitects%2BDaughter;fontSize=20;labelBackgroundColor=none;container=0;" parent="cPzZ6-SimsWvtrVy98jl-109" vertex="1">
                    <mxGeometry y="40" width="160" height="40" as="geometry"/>
                </mxCell>
                <mxCell id="cPzZ6-SimsWvtrVy98jl-112" value="" style="rounded=1;fillColor=#ffffff;strokeColor=#DFE1E5;shadow=1;arcSize=1;fontSize=12;fontColor=#596780;align=center;html=1;verticalAlign=top;spacingTop=5;sketch=1;hachureGap=4;pointerEvents=0;fontFamily=Architects Daughter;fontSource=https%3A%2F%2Ffonts.googleapis.com%2Fcss%3Ffamily%3DArchitects%2BDaughter;labelBackgroundColor=none;container=0;" parent="cPzZ6-SimsWvtrVy98jl-109" vertex="1">
                    <mxGeometry y="80" width="160" height="120" as="geometry"/>
                </mxCell>
                <mxCell id="cPzZ6-SimsWvtrVy98jl-115" value="" style="edgeStyle=none;html=1;entryX=0;entryY=0.5;entryDx=0;entryDy=0;exitX=-0.013;exitY=0.504;exitDx=0;exitDy=0;exitPerimeter=0;fillColor=#a20025;strokeColor=#6F0000;strokeWidth=4;" parent="jsm4oV-d1xH6QYawm0KN-131" source="cPzZ6-SimsWvtrVy98jl-112" target="105" edge="1">
                    <mxGeometry relative="1" as="geometry">
                        <mxPoint x="2930" y="46.42857142857156" as="targetPoint"/>
                    </mxGeometry>
                </mxCell>
                <mxCell id="cPzZ6-SimsWvtrVy98jl-116" value="" style="group" parent="jsm4oV-d1xH6QYawm0KN-131" vertex="1" connectable="0">
                    <mxGeometry x="2190" y="800" width="120" height="200" as="geometry"/>
                </mxCell>
                <mxCell id="cPzZ6-SimsWvtrVy98jl-117" value="&lt;h3&gt;&lt;br&gt;&lt;/h3&gt;" style="triangle;whiteSpace=wrap;html=1;verticalAlign=bottom;fillColor=#a20025;strokeColor=#6F0000;fontColor=#ffffff;sketch=0;dashed=0;fontStyle=0;container=0;direction=west;" parent="cPzZ6-SimsWvtrVy98jl-116" vertex="1">
                    <mxGeometry width="120" height="120" as="geometry"/>
                </mxCell>
                <mxCell id="cPzZ6-SimsWvtrVy98jl-118" value="&lt;h3&gt;&lt;font style=&quot;font-size: 15px;&quot;&gt;Section: 2.1 - on failure - sleep SLEEP_ON_FAILED and return to Section 2&lt;/font&gt;&lt;/h3&gt;" style="text;strokeColor=none;align=center;fillColor=none;html=1;verticalAlign=middle;whiteSpace=wrap;rounded=0;labelBackgroundColor=none;fontColor=#FFFFFF;container=0;" parent="cPzZ6-SimsWvtrVy98jl-116" vertex="1">
                    <mxGeometry y="120" width="120" height="80" as="geometry"/>
                </mxCell>
                <mxCell id="cPzZ6-SimsWvtrVy98jl-119" value="" style="group" parent="jsm4oV-d1xH6QYawm0KN-131" vertex="1" connectable="0">
                    <mxGeometry x="2410" y="760" width="160" height="200" as="geometry"/>
                </mxCell>
                <mxCell id="cPzZ6-SimsWvtrVy98jl-120" value="application/json" style="html=1;fillColor=none;strokeColor=none;fontSize=11;align=left;fontColor=#596780;whiteSpace=wrap;sketch=1;hachureGap=4;pointerEvents=0;fontFamily=Architects Daughter;fontSource=https%3A%2F%2Ffonts.googleapis.com%2Fcss%3Ffamily%3DArchitects%2BDaughter;labelBackgroundColor=none;container=0;" parent="cPzZ6-SimsWvtrVy98jl-119" vertex="1">
                    <mxGeometry width="160" height="40" as="geometry"/>
                </mxCell>
                <mxCell id="cPzZ6-SimsWvtrVy98jl-121" value="&lt;h1 style=&quot;font-family: Helvetica;&quot;&gt;&lt;font style=&quot;font-size: 15px;&quot;&gt;GetMasterTokenController&lt;/font&gt;&lt;/h1&gt;" style="rounded=1;arcSize=9;fillColor=#d80073;strokeColor=#A50040;html=1;strokeWidth=2;spacingLeft=5;fontColor=#ffffff;align=center;sketch=1;hachureGap=4;pointerEvents=0;fontFamily=Architects Daughter;fontSource=https%3A%2F%2Ffonts.googleapis.com%2Fcss%3Ffamily%3DArchitects%2BDaughter;fontSize=20;labelBackgroundColor=none;container=0;" parent="cPzZ6-SimsWvtrVy98jl-119" vertex="1">
                    <mxGeometry y="40" width="160" height="40" as="geometry"/>
                </mxCell>
                <mxCell id="cPzZ6-SimsWvtrVy98jl-122" value="" style="rounded=1;fillColor=#ffffff;strokeColor=#DFE1E5;shadow=1;arcSize=1;fontSize=12;fontColor=#596780;align=center;html=1;verticalAlign=top;spacingTop=5;sketch=1;hachureGap=4;pointerEvents=0;fontFamily=Architects Daughter;fontSource=https%3A%2F%2Ffonts.googleapis.com%2Fcss%3Ffamily%3DArchitects%2BDaughter;labelBackgroundColor=none;container=0;" parent="cPzZ6-SimsWvtrVy98jl-119" vertex="1">
                    <mxGeometry y="80" width="160" height="120" as="geometry"/>
                </mxCell>
                <mxCell id="cPzZ6-SimsWvtrVy98jl-124" value="" style="edgeStyle=none;html=1;entryX=0;entryY=0.5;entryDx=0;entryDy=0;exitX=0.011;exitY=0.169;exitDx=0;exitDy=0;exitPerimeter=0;fillColor=#a20025;strokeColor=#6F0000;strokeWidth=4;" parent="jsm4oV-d1xH6QYawm0KN-131" source="cPzZ6-SimsWvtrVy98jl-122" target="cPzZ6-SimsWvtrVy98jl-117" edge="1">
                    <mxGeometry relative="1" as="geometry">
                        <mxPoint x="2250" y="806.4285714285716" as="targetPoint"/>
                        <Array as="points">
                            <mxPoint x="2360" y="860"/>
                        </Array>
                    </mxGeometry>
                </mxCell>
                <mxCell id="cPzZ6-SimsWvtrVy98jl-128" value="" style="edgeStyle=none;html=1;strokeWidth=4;entryX=0.5;entryY=0;entryDx=0;entryDy=0;fillColor=#a20025;strokeColor=#6F0000;" parent="jsm4oV-d1xH6QYawm0KN-131" source="88" target="cPzZ6-SimsWvtrVy98jl-121" edge="1">
                    <mxGeometry relative="1" as="geometry">
                        <mxPoint x="2324.782608695652" y="734.782608695652" as="targetPoint"/>
                    </mxGeometry>
                </mxCell>
                <mxCell id="cPzZ6-SimsWvtrVy98jl-126" value="" style="edgeStyle=none;html=1;strokeWidth=4;entryX=0;entryY=0.5;entryDx=0;entryDy=0;fillColor=#008a00;strokeColor=#005700;" parent="jsm4oV-d1xH6QYawm0KN-131" source="101" target="88" edge="1">
                    <mxGeometry relative="1" as="geometry">
                        <mxPoint x="2410" y="376.3636363636365" as="targetPoint"/>
                    </mxGeometry>
                </mxCell>
                <mxCell id="cPzZ6-SimsWvtrVy98jl-130" value="" style="edgeStyle=none;html=1;strokeWidth=4;fillColor=#a20025;strokeColor=#6F0000;" parent="jsm4oV-d1xH6QYawm0KN-131" source="cPzZ6-SimsWvtrVy98jl-117" target="101" edge="1">
                    <mxGeometry relative="1" as="geometry">
                        <mxPoint x="2250" y="689.9999999999995" as="targetPoint"/>
                    </mxGeometry>
                </mxCell>
                <mxCell id="NCQ86NEp50kMlWurMFaj-109" value="" style="group" parent="jsm4oV-d1xH6QYawm0KN-131" vertex="1" connectable="0">
                    <mxGeometry x="3350" y="440" width="120" height="200" as="geometry"/>
                </mxCell>
                <mxCell id="NCQ86NEp50kMlWurMFaj-110" value="&lt;h3&gt;&lt;br&gt;&lt;/h3&gt;" style="triangle;whiteSpace=wrap;html=1;verticalAlign=bottom;fillColor=#60a917;strokeColor=#2D7600;fontColor=#ffffff;sketch=0;dashed=0;fontStyle=0;container=0;" parent="NCQ86NEp50kMlWurMFaj-109" vertex="1">
                    <mxGeometry width="120" height="120" as="geometry"/>
                </mxCell>
                <mxCell id="NCQ86NEp50kMlWurMFaj-111" value="&lt;h3&gt;&lt;font style=&quot;font-size: 15px;&quot;&gt;Section: 4.2 - on success - update the token and return to Section 4&lt;/font&gt;&lt;/h3&gt;" style="text;strokeColor=none;align=center;fillColor=none;html=1;verticalAlign=middle;whiteSpace=wrap;rounded=0;labelBackgroundColor=none;fontColor=#FFFFFF;container=0;" parent="NCQ86NEp50kMlWurMFaj-109" vertex="1">
                    <mxGeometry y="120" width="120" height="80" as="geometry"/>
                </mxCell>
                <mxCell id="NCQ86NEp50kMlWurMFaj-113" value="" style="edgeStyle=none;html=1;strokeWidth=4;fillColor=#008a00;strokeColor=#005700;" parent="jsm4oV-d1xH6QYawm0KN-131" source="c1xkClsVmjrqYPxNuD0H-101" target="NCQ86NEp50kMlWurMFaj-110" edge="1">
                    <mxGeometry relative="1" as="geometry">
                        <mxPoint x="3360.4023970642947" y="326.9069117597328" as="targetPoint"/>
                    </mxGeometry>
                </mxCell>
                <mxCell id="NCQ86NEp50kMlWurMFaj-115" value="" style="edgeStyle=none;html=1;strokeWidth=4;entryX=0.5;entryY=0;entryDx=0;entryDy=0;fillColor=#008a00;strokeColor=#005700;startArrow=none;exitX=0.13;exitY=0.497;exitDx=0;exitDy=0;exitPerimeter=0;" parent="jsm4oV-d1xH6QYawm0KN-131" source="NCQ86NEp50kMlWurMFaj-128" target="c1xkClsVmjrqYPxNuD0H-97" edge="1">
                    <mxGeometry relative="1" as="geometry">
                        <mxPoint x="3410" y="330" as="targetPoint"/>
                        <Array as="points">
                            <mxPoint x="2970" y="320"/>
                        </Array>
                    </mxGeometry>
                </mxCell>
                <mxCell id="NCQ86NEp50kMlWurMFaj-127" value="" style="edgeStyle=none;html=1;strokeWidth=4;entryX=0.95;entryY=0.5;entryDx=0;entryDy=0;fillColor=#008a00;strokeColor=#005700;endArrow=none;entryPerimeter=0;" parent="jsm4oV-d1xH6QYawm0KN-131" source="NCQ86NEp50kMlWurMFaj-110" target="NCQ86NEp50kMlWurMFaj-128" edge="1">
                    <mxGeometry relative="1" as="geometry">
                        <mxPoint x="3410" y="470" as="sourcePoint"/>
                        <mxPoint x="2970" y="470" as="targetPoint"/>
                        <Array as="points">
                            <mxPoint x="3410" y="320"/>
                        </Array>
                    </mxGeometry>
                </mxCell>
                <mxCell id="NCQ86NEp50kMlWurMFaj-128" value="" style="sketch=0;html=1;aspect=fixed;strokeColor=#2D7600;shadow=0;align=center;verticalAlign=top;fillColor=#60a917;shape=mxgraph.gcp2.arrow_cycle;fontColor=#ffffff;" parent="jsm4oV-d1xH6QYawm0KN-131" vertex="1">
                    <mxGeometry x="2990" y="280" width="84.21" height="80" as="geometry"/>
                </mxCell>
                <mxCell id="NCQ86NEp50kMlWurMFaj-129" value="" style="sketch=0;html=1;aspect=fixed;strokeColor=#6F0000;shadow=0;align=center;verticalAlign=top;fillColor=#a20025;shape=mxgraph.gcp2.arrow_cycle;fontColor=#ffffff;" parent="jsm4oV-d1xH6QYawm0KN-131" vertex="1">
                    <mxGeometry x="2207.9" y="679.5" width="84.74" height="80.5" as="geometry"/>
                </mxCell>
                <mxCell id="NCQ86NEp50kMlWurMFaj-130" value="" style="sketch=0;html=1;aspect=fixed;strokeColor=#6F0000;shadow=0;align=center;verticalAlign=top;fillColor=#a20025;shape=mxgraph.gcp2.arrow_cycle;fontColor=#ffffff;" parent="jsm4oV-d1xH6QYawm0KN-131" vertex="1">
                    <mxGeometry x="2207.9" y="280" width="84.21" height="80" as="geometry"/>
                </mxCell>
                <mxCell id="NCQ86NEp50kMlWurMFaj-131" value="" style="html=1;shadow=0;dashed=0;align=center;verticalAlign=middle;shape=mxgraph.arrows2.uTurnArrow;dy=11;arrowHead=43;dx2=63.25;direction=north;flipH=0;flipV=1;fillColor=#008a00;fontColor=#ffffff;strokeColor=#005700;rotation=90;" parent="jsm4oV-d1xH6QYawm0KN-131" vertex="1">
                    <mxGeometry x="1400" y="1421" width="230" height="170" as="geometry"/>
                </mxCell>
                <mxCell id="UGvVVFL2sWrUB86M1d1q-109" value="" style="sketch=0;html=1;aspect=fixed;strokeColor=#2D7600;shadow=0;align=center;verticalAlign=top;fillColor=#60a917;shape=mxgraph.gcp2.arrow_cycle;fontColor=#ffffff;" parent="jsm4oV-d1xH6QYawm0KN-131" vertex="1">
                    <mxGeometry x="1510" y="1439.5" width="126.84" height="120.5" as="geometry"/>
                </mxCell>
                <mxCell id="jsm4oV-d1xH6QYawm0KN-119" value="" style="edgeStyle=none;jumpSize=20;html=1;strokeWidth=4;fontFamily=Helvetica;fontSize=15;fontColor=#FF0000;fillColor=#008a00;strokeColor=#005700;entryX=-0.001;entryY=0.506;entryDx=0;entryDy=0;exitX=0.5;exitY=0;exitDx=0;exitDy=0;entryPerimeter=0;" parent="jsm4oV-d1xH6QYawm0KN-131" source="jsm4oV-d1xH6QYawm0KN-110" target="qZs_2gLDXwpBYbbK-WQE-98" edge="1">
                    <mxGeometry relative="1" as="geometry">
                        <mxPoint x="1230" y="940" as="targetPoint"/>
                        <Array as="points">
                            <mxPoint x="980" y="497"/>
                        </Array>
                    </mxGeometry>
                </mxCell>
                <mxCell id="jsm4oV-d1xH6QYawm0KN-132" value="1" style="edgeLabel;html=1;align=center;verticalAlign=middle;resizable=0;points=[];" parent="jsm4oV-d1xH6QYawm0KN-119" vertex="1" connectable="0">
                    <mxGeometry x="-0.2601" y="-3" relative="1" as="geometry">
                        <mxPoint as="offset"/>
                    </mxGeometry>
                </mxCell>
                <mxCell id="jsm4oV-d1xH6QYawm0KN-112" value="" style="group" parent="jsm4oV-d1xH6QYawm0KN-131" vertex="1" connectable="0">
                    <mxGeometry x="670" y="880" width="120" height="200" as="geometry"/>
                </mxCell>
                <mxCell id="jsm4oV-d1xH6QYawm0KN-113" value="&lt;h3&gt;&lt;br&gt;&lt;/h3&gt;" style="triangle;whiteSpace=wrap;html=1;verticalAlign=bottom;fillColor=#60a917;strokeColor=#2D7600;fontColor=#ffffff;sketch=0;dashed=0;fontStyle=0;container=0;" parent="jsm4oV-d1xH6QYawm0KN-112" vertex="1">
                    <mxGeometry width="120" height="120" as="geometry"/>
                </mxCell>
                <mxCell id="jsm4oV-d1xH6QYawm0KN-114" value="&lt;h3&gt;&lt;font style=&quot;font-size: 15px;&quot;&gt;Section: 1 - create the database collections if they are not created and initialize other vers&lt;/font&gt;&lt;/h3&gt;" style="text;strokeColor=none;align=center;fillColor=none;html=1;verticalAlign=middle;whiteSpace=wrap;rounded=0;labelBackgroundColor=none;fontColor=#FFFFFF;container=0;" parent="jsm4oV-d1xH6QYawm0KN-112" vertex="1">
                    <mxGeometry y="120" width="120" height="80" as="geometry"/>
                </mxCell>
                <mxCell id="jsm4oV-d1xH6QYawm0KN-121" value="" style="group" parent="jsm4oV-d1xH6QYawm0KN-131" vertex="1" connectable="0">
                    <mxGeometry x="430" y="880" width="120" height="200" as="geometry"/>
                </mxCell>
                <mxCell id="jsm4oV-d1xH6QYawm0KN-122" value="&lt;h3&gt;&lt;br&gt;&lt;/h3&gt;" style="triangle;whiteSpace=wrap;html=1;verticalAlign=bottom;fillColor=#60a917;strokeColor=#2D7600;fontColor=#ffffff;sketch=0;dashed=0;fontStyle=0;container=0;" parent="jsm4oV-d1xH6QYawm0KN-121" vertex="1">
                    <mxGeometry width="120" height="120" as="geometry"/>
                </mxCell>
                <mxCell id="jsm4oV-d1xH6QYawm0KN-123" value="&lt;h3&gt;&lt;font style=&quot;font-size: 15px;&quot;&gt;Section: 0 - log for starting the server&lt;/font&gt;&lt;/h3&gt;" style="text;strokeColor=none;align=center;fillColor=none;html=1;verticalAlign=middle;whiteSpace=wrap;rounded=0;labelBackgroundColor=none;fontColor=#FFFFFF;container=0;" parent="jsm4oV-d1xH6QYawm0KN-121" vertex="1">
                    <mxGeometry y="120" width="120" height="80" as="geometry"/>
                </mxCell>
                <mxCell id="jsm4oV-d1xH6QYawm0KN-124" value="" style="group" parent="jsm4oV-d1xH6QYawm0KN-131" vertex="1" connectable="0">
                    <mxGeometry x="914" y="880" width="120" height="200" as="geometry"/>
                </mxCell>
                <mxCell id="jsm4oV-d1xH6QYawm0KN-129" value="" style="edgeStyle=none;html=1;" parent="jsm4oV-d1xH6QYawm0KN-124" source="jsm4oV-d1xH6QYawm0KN-110" target="jsm4oV-d1xH6QYawm0KN-111" edge="1">
                    <mxGeometry relative="1" as="geometry"/>
                </mxCell>
                <mxCell id="jsm4oV-d1xH6QYawm0KN-110" value="" style="rhombus;whiteSpace=wrap;html=1;verticalAlign=bottom;fillColor=#60a917;strokeColor=#2D7600;fontColor=#ffffff;sketch=0;dashed=0;fontStyle=0;container=0;" parent="jsm4oV-d1xH6QYawm0KN-124" vertex="1">
                    <mxGeometry width="120" height="120" as="geometry"/>
                </mxCell>
                <mxCell id="jsm4oV-d1xH6QYawm0KN-111" value="&lt;h1&gt;&lt;font style=&quot;font-size: 15px;&quot;&gt;InitializeDb&lt;/font&gt;&lt;/h1&gt;" style="text;strokeColor=none;align=center;fillColor=none;html=1;verticalAlign=middle;whiteSpace=wrap;rounded=0;labelBackgroundColor=none;fontFamily=Helvetica;fontSize=5;fontColor=#FFFFFF;container=0;" parent="jsm4oV-d1xH6QYawm0KN-124" vertex="1">
                    <mxGeometry y="120" width="120" height="80" as="geometry"/>
                </mxCell>
                <mxCell id="jsm4oV-d1xH6QYawm0KN-125" value="" style="edgeStyle=none;html=1;fillColor=#008a00;strokeColor=#005700;strokeWidth=4;entryX=0;entryY=0.5;entryDx=0;entryDy=0;" parent="jsm4oV-d1xH6QYawm0KN-131" source="cuHU_jUuGtvRVOGaUER6-110" target="jsm4oV-d1xH6QYawm0KN-122" edge="1">
                    <mxGeometry relative="1" as="geometry">
                        <mxPoint x="559" y="810" as="targetPoint"/>
                        <mxPoint x="430" y="812.8800000000001" as="sourcePoint"/>
                    </mxGeometry>
                </mxCell>
                <mxCell id="jsm4oV-d1xH6QYawm0KN-126" value="" style="edgeStyle=none;jumpSize=20;html=1;strokeWidth=4;fontFamily=Helvetica;fontSize=15;fontColor=#FF0000;fillColor=#008a00;strokeColor=#005700;entryX=0;entryY=0.5;entryDx=0;entryDy=0;exitX=0.5;exitY=0;exitDx=0;exitDy=0;entryPerimeter=0;" parent="jsm4oV-d1xH6QYawm0KN-131" source="jsm4oV-d1xH6QYawm0KN-111" target="qZs_2gLDXwpBYbbK-WQE-96" edge="1">
                    <mxGeometry relative="1" as="geometry">
                        <mxPoint x="1039.6000000000004" y="508.66498000000024" as="targetPoint"/>
                        <mxPoint x="984" y="890" as="sourcePoint"/>
                        <Array as="points">
                            <mxPoint x="970" y="1480"/>
                        </Array>
                    </mxGeometry>
                </mxCell>
                <mxCell id="jsm4oV-d1xH6QYawm0KN-133" value="2" style="edgeLabel;html=1;align=center;verticalAlign=middle;resizable=0;points=[];" parent="jsm4oV-d1xH6QYawm0KN-126" vertex="1" connectable="0">
                    <mxGeometry x="-0.2134" y="4" relative="1" as="geometry">
                        <mxPoint as="offset"/>
                    </mxGeometry>
                </mxCell>
                <mxCell id="jsm4oV-d1xH6QYawm0KN-115" value="" style="edgeStyle=none;html=1;fillColor=#008a00;strokeColor=#005700;strokeWidth=4;exitX=1;exitY=0.5;exitDx=0;exitDy=0;entryX=0;entryY=0.5;entryDx=0;entryDy=0;" parent="jsm4oV-d1xH6QYawm0KN-131" source="jsm4oV-d1xH6QYawm0KN-113" target="jsm4oV-d1xH6QYawm0KN-110" edge="1">
                    <mxGeometry relative="1" as="geometry">
                        <mxPoint x="1090" y="1070" as="targetPoint"/>
                    </mxGeometry>
                </mxCell>
                <mxCell id="jsm4oV-d1xH6QYawm0KN-127" value="" style="edgeStyle=none;html=1;fillColor=#008a00;strokeColor=#005700;strokeWidth=4;exitX=1;exitY=0.5;exitDx=0;exitDy=0;" parent="jsm4oV-d1xH6QYawm0KN-131" source="jsm4oV-d1xH6QYawm0KN-122" target="jsm4oV-d1xH6QYawm0KN-113" edge="1">
                    <mxGeometry relative="1" as="geometry">
                        <mxPoint x="723.99" y="1300" as="targetPoint"/>
                        <mxPoint x="600.0000000000002" y="1300" as="sourcePoint"/>
                    </mxGeometry>
                </mxCell>
            </root>
        </mxGraphModel>
    </diagram>
    <diagram id="mJQUdGGntptIited7ohK" name="example">
        <mxGraphModel dx="3210" dy="1994" grid="1" gridSize="10" guides="1" tooltips="1" connect="1" arrows="1" fold="1" page="1" pageScale="1" pageWidth="1500" pageHeight="1000" math="0" shadow="0">
            <root>
                <mxCell id="0"/>
                <mxCell id="1" parent="0"/>
                <mxCell id="mLV1MDpqo3R6RIJ1vRHS-1" value="" style="group;fillColor=#647687;fontColor=#ffffff;strokeColor=#314354;" parent="1" vertex="1" connectable="0">
                    <mxGeometry x="-920" y="-480" width="1560" height="800" as="geometry"/>
                </mxCell>
                <mxCell id="mLV1MDpqo3R6RIJ1vRHS-2" value="&lt;h3&gt;&lt;br&gt;&lt;/h3&gt;" style="triangle;whiteSpace=wrap;html=1;verticalAlign=bottom;fillColor=#60a917;strokeColor=#2D7600;fontColor=#ffffff;sketch=0;dashed=0;fontStyle=0;container=0;" parent="mLV1MDpqo3R6RIJ1vRHS-1" vertex="1">
                    <mxGeometry x="1440" y="600" width="120" height="120" as="geometry"/>
                </mxCell>
                <mxCell id="mLV1MDpqo3R6RIJ1vRHS-3" value="&lt;h3&gt;&lt;font style=&quot;font-size: 15px;&quot;&gt;Section: 6 - finish success&lt;/font&gt;&lt;/h3&gt;" style="text;strokeColor=none;align=center;fillColor=none;html=1;verticalAlign=middle;whiteSpace=wrap;rounded=0;labelBackgroundColor=none;fontColor=#FFFFFF;container=0;" parent="mLV1MDpqo3R6RIJ1vRHS-1" vertex="1">
                    <mxGeometry x="1440" y="720" width="120" height="80" as="geometry"/>
                </mxCell>
                <mxCell id="mLV1MDpqo3R6RIJ1vRHS-4" value="application/json" style="html=1;fillColor=none;strokeColor=none;fontSize=11;align=left;fontColor=#596780;whiteSpace=wrap;sketch=1;hachureGap=4;pointerEvents=0;fontFamily=Architects Daughter;fontSource=https%3A%2F%2Ffonts.googleapis.com%2Fcss%3Ffamily%3DArchitects%2BDaughter;labelBackgroundColor=none;container=0;" parent="mLV1MDpqo3R6RIJ1vRHS-1" vertex="1">
                    <mxGeometry x="1180" width="160" height="40" as="geometry"/>
                </mxCell>
                <mxCell id="mLV1MDpqo3R6RIJ1vRHS-5" value="&lt;span style=&quot;text-align: center;&quot;&gt;400&lt;/span&gt;" style="rounded=1;arcSize=9;fillColor=#d80073;strokeColor=#A50040;html=1;strokeWidth=2;spacingLeft=5;fontColor=#ffffff;align=left;sketch=1;hachureGap=4;pointerEvents=0;fontFamily=Architects Daughter;fontSource=https%3A%2F%2Ffonts.googleapis.com%2Fcss%3Ffamily%3DArchitects%2BDaughter;fontSize=20;labelBackgroundColor=none;container=0;" parent="mLV1MDpqo3R6RIJ1vRHS-1" vertex="1">
                    <mxGeometry x="1180" y="40" width="160" height="40" as="geometry"/>
                </mxCell>
                <mxCell id="mLV1MDpqo3R6RIJ1vRHS-6" value="" style="rounded=1;fillColor=#ffffff;strokeColor=#DFE1E5;shadow=1;arcSize=1;fontSize=12;fontColor=#596780;align=center;html=1;verticalAlign=top;spacingTop=5;sketch=1;hachureGap=4;pointerEvents=0;fontFamily=Architects Daughter;fontSource=https%3A%2F%2Ffonts.googleapis.com%2Fcss%3Ffamily%3DArchitects%2BDaughter;labelBackgroundColor=none;container=0;" parent="mLV1MDpqo3R6RIJ1vRHS-1" vertex="1">
                    <mxGeometry x="1180" y="80" width="160" height="120" as="geometry"/>
                </mxCell>
                <mxCell id="mLV1MDpqo3R6RIJ1vRHS-7" value="&lt;font style=&quot;&quot;&gt;&lt;font face=&quot;Architects Daughter&quot; color=&quot;#596780&quot;&gt;massage: &quot;There is a problem with the structure or information in the response&quot;&lt;/font&gt;&lt;/font&gt;" style="text;strokeColor=none;align=left;fillColor=none;html=1;verticalAlign=top;whiteSpace=wrap;rounded=0;labelBackgroundColor=none;fontFamily=Helvetica;fontSize=10;fontColor=#000000;container=0;" parent="mLV1MDpqo3R6RIJ1vRHS-1" vertex="1">
                    <mxGeometry x="1180" y="90" width="160" height="110" as="geometry"/>
                </mxCell>
                <mxCell id="mLV1MDpqo3R6RIJ1vRHS-8" value="" style="edgeStyle=none;html=1;fontFamily=Helvetica;fontSize=8;fontColor=#FF0000;entryX=0.5;entryY=1;entryDx=0;entryDy=0;fillColor=#d80073;strokeColor=#A50040;strokeWidth=2;exitX=0.5;exitY=0;exitDx=0;exitDy=0;" parent="mLV1MDpqo3R6RIJ1vRHS-1" source="mLV1MDpqo3R6RIJ1vRHS-44" target="mLV1MDpqo3R6RIJ1vRHS-7" edge="1">
                    <mxGeometry relative="1" as="geometry">
                        <mxPoint x="1279" y="560" as="sourcePoint"/>
                        <mxPoint x="1278.9999999999995" y="439.66999999999985" as="targetPoint"/>
                    </mxGeometry>
                </mxCell>
                <mxCell id="mLV1MDpqo3R6RIJ1vRHS-9" value="" style="rhombus;whiteSpace=wrap;html=1;verticalAlign=bottom;fillColor=#60a917;strokeColor=#2D7600;fontColor=#ffffff;sketch=0;dashed=0;fontStyle=0;container=0;" parent="mLV1MDpqo3R6RIJ1vRHS-1" vertex="1">
                    <mxGeometry y="600" width="120" height="120" as="geometry"/>
                </mxCell>
                <mxCell id="mLV1MDpqo3R6RIJ1vRHS-10" value="&lt;h1&gt;&lt;font style=&quot;font-size: 15px;&quot;&gt;GetUserTokenController&lt;/font&gt;&lt;/h1&gt;" style="text;strokeColor=none;align=center;fillColor=none;html=1;verticalAlign=middle;whiteSpace=wrap;rounded=0;labelBackgroundColor=none;fontFamily=Helvetica;fontSize=5;fontColor=#FFFFFF;container=0;" parent="mLV1MDpqo3R6RIJ1vRHS-1" vertex="1">
                    <mxGeometry y="720" width="120" height="80" as="geometry"/>
                </mxCell>
                <mxCell id="mLV1MDpqo3R6RIJ1vRHS-11" value="application/json" style="html=1;fillColor=none;strokeColor=none;fontSize=11;align=left;fontColor=#596780;whiteSpace=wrap;sketch=1;hachureGap=4;pointerEvents=0;fontFamily=Architects Daughter;fontSource=https%3A%2F%2Ffonts.googleapis.com%2Fcss%3Ffamily%3DArchitects%2BDaughter;labelBackgroundColor=none;container=0;" parent="mLV1MDpqo3R6RIJ1vRHS-1" vertex="1">
                    <mxGeometry x="220" width="160" height="40" as="geometry"/>
                </mxCell>
                <mxCell id="mLV1MDpqo3R6RIJ1vRHS-12" value="&lt;span style=&quot;text-align: center;&quot;&gt;400&lt;/span&gt;" style="rounded=1;arcSize=9;fillColor=#d80073;strokeColor=#A50040;html=1;strokeWidth=2;spacingLeft=5;fontColor=#ffffff;align=left;sketch=1;hachureGap=4;pointerEvents=0;fontFamily=Architects Daughter;fontSource=https%3A%2F%2Ffonts.googleapis.com%2Fcss%3Ffamily%3DArchitects%2BDaughter;fontSize=20;labelBackgroundColor=none;container=0;" parent="mLV1MDpqo3R6RIJ1vRHS-1" vertex="1">
                    <mxGeometry x="220" y="40" width="160" height="40" as="geometry"/>
                </mxCell>
                <mxCell id="mLV1MDpqo3R6RIJ1vRHS-13" value="" style="rounded=1;fillColor=#ffffff;strokeColor=#DFE1E5;shadow=1;arcSize=1;fontSize=12;fontColor=#596780;align=center;html=1;verticalAlign=top;spacingTop=5;sketch=1;hachureGap=4;pointerEvents=0;fontFamily=Architects Daughter;fontSource=https%3A%2F%2Ffonts.googleapis.com%2Fcss%3Ffamily%3DArchitects%2BDaughter;labelBackgroundColor=none;container=0;" parent="mLV1MDpqo3R6RIJ1vRHS-1" vertex="1">
                    <mxGeometry x="220" y="80" width="160" height="120" as="geometry"/>
                </mxCell>
                <mxCell id="mLV1MDpqo3R6RIJ1vRHS-14" value="&lt;span style=&quot;color: rgb(89, 103, 128); font-family: &amp;quot;Architects Daughter&amp;quot;;&quot;&gt;&lt;font style=&quot;font-size: 10px;&quot;&gt;massage: &quot;const error&quot;&lt;/font&gt;&lt;/span&gt;" style="text;strokeColor=none;align=left;fillColor=none;html=1;verticalAlign=top;whiteSpace=wrap;rounded=0;labelBackgroundColor=none;fontFamily=Helvetica;fontSize=10;fontColor=#000000;container=0;" parent="mLV1MDpqo3R6RIJ1vRHS-1" vertex="1">
                    <mxGeometry x="220" y="90" width="160" height="110" as="geometry"/>
                </mxCell>
                <mxCell id="mLV1MDpqo3R6RIJ1vRHS-15" value="&lt;h3&gt;&lt;br&gt;&lt;/h3&gt;" style="triangle;whiteSpace=wrap;html=1;verticalAlign=bottom;fillColor=#60a917;strokeColor=#2D7600;fontColor=#ffffff;sketch=0;dashed=0;fontStyle=0;container=0;" parent="mLV1MDpqo3R6RIJ1vRHS-1" vertex="1">
                    <mxGeometry x="240" y="600" width="120" height="120" as="geometry"/>
                </mxCell>
                <mxCell id="mLV1MDpqo3R6RIJ1vRHS-16" value="" style="edgeStyle=none;jumpSize=20;html=1;strokeWidth=2;fontFamily=Helvetica;fontSize=15;fontColor=#FF0000;fillColor=#008a00;strokeColor=#005700;" parent="mLV1MDpqo3R6RIJ1vRHS-1" source="mLV1MDpqo3R6RIJ1vRHS-9" target="mLV1MDpqo3R6RIJ1vRHS-15" edge="1">
                    <mxGeometry relative="1" as="geometry">
                        <mxPoint x="219" y="660.9999999999995" as="targetPoint"/>
                    </mxGeometry>
                </mxCell>
                <mxCell id="mLV1MDpqo3R6RIJ1vRHS-17" value="" style="edgeStyle=none;html=1;fontFamily=Helvetica;fontSize=8;fontColor=#FF0000;entryX=0.5;entryY=1;entryDx=0;entryDy=0;fillColor=#d80073;strokeColor=#A50040;strokeWidth=2;exitX=0.5;exitY=0;exitDx=0;exitDy=0;" parent="mLV1MDpqo3R6RIJ1vRHS-1" source="mLV1MDpqo3R6RIJ1vRHS-15" target="mLV1MDpqo3R6RIJ1vRHS-14" edge="1">
                    <mxGeometry relative="1" as="geometry">
                        <mxPoint x="318" y="557" as="sourcePoint"/>
                        <mxPoint x="317.99999999999955" y="436.66999999999985" as="targetPoint"/>
                    </mxGeometry>
                </mxCell>
                <mxCell id="mLV1MDpqo3R6RIJ1vRHS-18" value="&lt;h3&gt;&lt;font style=&quot;font-size: 15px;&quot;&gt;Section: 1 - Prepares request login data of master and url&lt;/font&gt;&lt;/h3&gt;" style="text;strokeColor=none;align=center;fillColor=none;html=1;verticalAlign=middle;whiteSpace=wrap;rounded=0;labelBackgroundColor=none;fontColor=#FFFFFF;container=0;" parent="mLV1MDpqo3R6RIJ1vRHS-1" vertex="1">
                    <mxGeometry x="240" y="720" width="120" height="80" as="geometry"/>
                </mxCell>
                <mxCell id="mLV1MDpqo3R6RIJ1vRHS-19" value="application/json" style="html=1;fillColor=none;strokeColor=none;fontSize=11;align=left;fontColor=#596780;whiteSpace=wrap;sketch=1;hachureGap=4;pointerEvents=0;fontFamily=Architects Daughter;fontSource=https%3A%2F%2Ffonts.googleapis.com%2Fcss%3Ffamily%3DArchitects%2BDaughter;labelBackgroundColor=none;container=0;" parent="mLV1MDpqo3R6RIJ1vRHS-1" vertex="1">
                    <mxGeometry x="460" width="160" height="40" as="geometry"/>
                </mxCell>
                <mxCell id="mLV1MDpqo3R6RIJ1vRHS-20" value="&lt;span style=&quot;text-align: center;&quot;&gt;400&lt;/span&gt;" style="rounded=1;arcSize=9;fillColor=#d80073;strokeColor=#A50040;html=1;strokeWidth=2;spacingLeft=5;fontColor=#ffffff;align=left;sketch=1;hachureGap=4;pointerEvents=0;fontFamily=Architects Daughter;fontSource=https%3A%2F%2Ffonts.googleapis.com%2Fcss%3Ffamily%3DArchitects%2BDaughter;fontSize=20;labelBackgroundColor=none;container=0;" parent="mLV1MDpqo3R6RIJ1vRHS-1" vertex="1">
                    <mxGeometry x="460" y="40" width="160" height="40" as="geometry"/>
                </mxCell>
                <mxCell id="mLV1MDpqo3R6RIJ1vRHS-21" value="" style="rounded=1;fillColor=#ffffff;strokeColor=#DFE1E5;shadow=1;arcSize=1;fontSize=12;fontColor=#596780;align=center;html=1;verticalAlign=top;spacingTop=5;sketch=1;hachureGap=4;pointerEvents=0;fontFamily=Architects Daughter;fontSource=https%3A%2F%2Ffonts.googleapis.com%2Fcss%3Ffamily%3DArchitects%2BDaughter;labelBackgroundColor=none;container=0;" parent="mLV1MDpqo3R6RIJ1vRHS-1" vertex="1">
                    <mxGeometry x="460" y="80" width="160" height="120" as="geometry"/>
                </mxCell>
                <mxCell id="mLV1MDpqo3R6RIJ1vRHS-22" value="&lt;font style=&quot;&quot;&gt;&lt;font face=&quot;Architects Daughter&quot; color=&quot;#596780&quot;&gt;massage: &quot;invalid address&quot;&lt;/font&gt;&lt;/font&gt;" style="text;strokeColor=none;align=left;fillColor=none;html=1;verticalAlign=top;whiteSpace=wrap;rounded=0;labelBackgroundColor=none;fontFamily=Helvetica;fontSize=10;fontColor=#000000;container=0;" parent="mLV1MDpqo3R6RIJ1vRHS-1" vertex="1">
                    <mxGeometry x="460" y="90" width="160" height="110" as="geometry"/>
                </mxCell>
                <mxCell id="mLV1MDpqo3R6RIJ1vRHS-23" value="&lt;h3&gt;&lt;br&gt;&lt;/h3&gt;" style="triangle;whiteSpace=wrap;html=1;verticalAlign=bottom;fillColor=#60a917;strokeColor=#2D7600;fontColor=#ffffff;sketch=0;dashed=0;fontStyle=0;container=0;" parent="mLV1MDpqo3R6RIJ1vRHS-1" vertex="1">
                    <mxGeometry x="480" y="600" width="120" height="120" as="geometry"/>
                </mxCell>
                <mxCell id="mLV1MDpqo3R6RIJ1vRHS-24" value="" style="edgeStyle=none;html=1;fontFamily=Helvetica;fontSize=8;fontColor=#FF0000;fillColor=#008a00;strokeColor=#005700;strokeWidth=2;exitX=1;exitY=0.5;exitDx=0;exitDy=0;entryX=0;entryY=0.5;entryDx=0;entryDy=0;" parent="mLV1MDpqo3R6RIJ1vRHS-1" source="mLV1MDpqo3R6RIJ1vRHS-15" target="mLV1MDpqo3R6RIJ1vRHS-23" edge="1">
                    <mxGeometry relative="1" as="geometry">
                        <mxPoint x="2202" y="757" as="sourcePoint"/>
                        <mxPoint x="479" y="660" as="targetPoint"/>
                    </mxGeometry>
                </mxCell>
                <mxCell id="mLV1MDpqo3R6RIJ1vRHS-25" value="" style="edgeStyle=none;html=1;fontFamily=Helvetica;fontSize=8;fontColor=#FF0000;entryX=0.5;entryY=1;entryDx=0;entryDy=0;fillColor=#d80073;strokeColor=#A50040;strokeWidth=2;" parent="mLV1MDpqo3R6RIJ1vRHS-1" source="mLV1MDpqo3R6RIJ1vRHS-23" target="mLV1MDpqo3R6RIJ1vRHS-22" edge="1">
                    <mxGeometry relative="1" as="geometry">
                        <mxPoint x="549" y="620" as="sourcePoint"/>
                        <mxPoint x="188.99999999999955" y="469.66999999999985" as="targetPoint"/>
                    </mxGeometry>
                </mxCell>
                <mxCell id="mLV1MDpqo3R6RIJ1vRHS-26" value="&lt;h3&gt;&lt;font style=&quot;font-size: 15px;&quot;&gt;Section: 2 - Prepares request body and header for retrieving master token&lt;/font&gt;&lt;/h3&gt;" style="text;strokeColor=none;align=center;fillColor=none;html=1;verticalAlign=middle;whiteSpace=wrap;rounded=0;labelBackgroundColor=none;fontColor=#FFFFFF;container=0;" parent="mLV1MDpqo3R6RIJ1vRHS-1" vertex="1">
                    <mxGeometry x="480" y="720" width="120" height="80" as="geometry"/>
                </mxCell>
                <mxCell id="mLV1MDpqo3R6RIJ1vRHS-27" value="application/json" style="html=1;fillColor=none;strokeColor=none;fontSize=11;align=left;fontColor=#596780;whiteSpace=wrap;sketch=1;hachureGap=4;pointerEvents=0;fontFamily=Architects Daughter;fontSource=https%3A%2F%2Ffonts.googleapis.com%2Fcss%3Ffamily%3DArchitects%2BDaughter;labelBackgroundColor=none;container=0;" parent="mLV1MDpqo3R6RIJ1vRHS-1" vertex="1">
                    <mxGeometry x="700" width="160" height="40" as="geometry"/>
                </mxCell>
                <mxCell id="mLV1MDpqo3R6RIJ1vRHS-28" value="&lt;span style=&quot;text-align: center;&quot;&gt;400&lt;/span&gt;" style="rounded=1;arcSize=9;fillColor=#d80073;strokeColor=#A50040;html=1;strokeWidth=2;spacingLeft=5;fontColor=#ffffff;align=left;sketch=1;hachureGap=4;pointerEvents=0;fontFamily=Architects Daughter;fontSource=https%3A%2F%2Ffonts.googleapis.com%2Fcss%3Ffamily%3DArchitects%2BDaughter;fontSize=20;labelBackgroundColor=none;container=0;" parent="mLV1MDpqo3R6RIJ1vRHS-1" vertex="1">
                    <mxGeometry x="700" y="40" width="160" height="40" as="geometry"/>
                </mxCell>
                <mxCell id="mLV1MDpqo3R6RIJ1vRHS-29" value="" style="rounded=1;fillColor=#ffffff;strokeColor=#DFE1E5;shadow=1;arcSize=1;fontSize=12;fontColor=#596780;align=center;html=1;verticalAlign=top;spacingTop=5;sketch=1;hachureGap=4;pointerEvents=0;fontFamily=Architects Daughter;fontSource=https%3A%2F%2Ffonts.googleapis.com%2Fcss%3Ffamily%3DArchitects%2BDaughter;labelBackgroundColor=none;container=0;" parent="mLV1MDpqo3R6RIJ1vRHS-1" vertex="1">
                    <mxGeometry x="700" y="80" width="160" height="120" as="geometry"/>
                </mxCell>
                <mxCell id="mLV1MDpqo3R6RIJ1vRHS-30" value="&lt;font style=&quot;&quot;&gt;&lt;font face=&quot;Architects Daughter&quot; color=&quot;#596780&quot;&gt;massage: &quot;Sending the request failed&quot;&lt;/font&gt;&lt;/font&gt;" style="text;strokeColor=none;align=left;fillColor=none;html=1;verticalAlign=top;whiteSpace=wrap;rounded=0;labelBackgroundColor=none;fontFamily=Helvetica;fontSize=10;fontColor=#000000;container=0;" parent="mLV1MDpqo3R6RIJ1vRHS-1" vertex="1">
                    <mxGeometry x="700" y="90" width="160" height="110" as="geometry"/>
                </mxCell>
                <mxCell id="mLV1MDpqo3R6RIJ1vRHS-31" value="&lt;h3&gt;&lt;br&gt;&lt;/h3&gt;" style="triangle;whiteSpace=wrap;html=1;verticalAlign=bottom;fillColor=#60a917;strokeColor=#2D7600;fontColor=#ffffff;sketch=0;dashed=0;fontStyle=0;container=0;" parent="mLV1MDpqo3R6RIJ1vRHS-1" vertex="1">
                    <mxGeometry x="720" y="600" width="120" height="120" as="geometry"/>
                </mxCell>
                <mxCell id="mLV1MDpqo3R6RIJ1vRHS-32" value="" style="edgeStyle=none;jumpSize=20;html=1;strokeWidth=2;fontFamily=Helvetica;fontSize=15;fontColor=#FF0000;fillColor=#008a00;strokeColor=#005700;exitX=1;exitY=0.5;exitDx=0;exitDy=0;entryX=0;entryY=0.5;entryDx=0;entryDy=0;" parent="mLV1MDpqo3R6RIJ1vRHS-1" source="mLV1MDpqo3R6RIJ1vRHS-23" target="mLV1MDpqo3R6RIJ1vRHS-31" edge="1">
                    <mxGeometry relative="1" as="geometry">
                        <mxPoint x="679" y="660" as="targetPoint"/>
                        <mxPoint x="599" y="660" as="sourcePoint"/>
                    </mxGeometry>
                </mxCell>
                <mxCell id="mLV1MDpqo3R6RIJ1vRHS-33" value="" style="edgeStyle=none;html=1;fontFamily=Helvetica;fontSize=8;fontColor=#FF0000;entryX=0.5;entryY=1;entryDx=0;entryDy=0;fillColor=#d80073;strokeColor=#A50040;strokeWidth=2;" parent="mLV1MDpqo3R6RIJ1vRHS-1" source="mLV1MDpqo3R6RIJ1vRHS-31" target="mLV1MDpqo3R6RIJ1vRHS-30" edge="1">
                    <mxGeometry relative="1" as="geometry">
                        <mxPoint x="789" y="620" as="sourcePoint"/>
                        <mxPoint x="428.99999999999955" y="469.66999999999985" as="targetPoint"/>
                    </mxGeometry>
                </mxCell>
                <mxCell id="mLV1MDpqo3R6RIJ1vRHS-34" value="&lt;h3&gt;&lt;font style=&quot;font-size: 15px;&quot;&gt;Section: 3 - send the request&lt;/font&gt;&lt;/h3&gt;" style="text;strokeColor=none;align=center;fillColor=none;html=1;verticalAlign=middle;whiteSpace=wrap;rounded=0;labelBackgroundColor=none;fontColor=#FFFFFF;container=0;" parent="mLV1MDpqo3R6RIJ1vRHS-1" vertex="1">
                    <mxGeometry x="720" y="720" width="120" height="80" as="geometry"/>
                </mxCell>
                <mxCell id="mLV1MDpqo3R6RIJ1vRHS-35" value="application/json" style="html=1;fillColor=none;strokeColor=none;fontSize=11;align=left;fontColor=#596780;whiteSpace=wrap;sketch=1;hachureGap=4;pointerEvents=0;fontFamily=Architects Daughter;fontSource=https%3A%2F%2Ffonts.googleapis.com%2Fcss%3Ffamily%3DArchitects%2BDaughter;labelBackgroundColor=none;container=0;" parent="mLV1MDpqo3R6RIJ1vRHS-1" vertex="1">
                    <mxGeometry x="940" width="160" height="40" as="geometry"/>
                </mxCell>
                <mxCell id="mLV1MDpqo3R6RIJ1vRHS-36" value="&lt;span style=&quot;text-align: center;&quot;&gt;400&lt;/span&gt;" style="rounded=1;arcSize=9;fillColor=#d80073;strokeColor=#A50040;html=1;strokeWidth=2;spacingLeft=5;fontColor=#ffffff;align=left;sketch=1;hachureGap=4;pointerEvents=0;fontFamily=Architects Daughter;fontSource=https%3A%2F%2Ffonts.googleapis.com%2Fcss%3Ffamily%3DArchitects%2BDaughter;fontSize=20;labelBackgroundColor=none;container=0;" parent="mLV1MDpqo3R6RIJ1vRHS-1" vertex="1">
                    <mxGeometry x="940" y="40" width="160" height="40" as="geometry"/>
                </mxCell>
                <mxCell id="mLV1MDpqo3R6RIJ1vRHS-37" value="" style="rounded=1;fillColor=#ffffff;strokeColor=#DFE1E5;shadow=1;arcSize=1;fontSize=12;fontColor=#596780;align=center;html=1;verticalAlign=top;spacingTop=5;sketch=1;hachureGap=4;pointerEvents=0;fontFamily=Architects Daughter;fontSource=https%3A%2F%2Ffonts.googleapis.com%2Fcss%3Ffamily%3DArchitects%2BDaughter;labelBackgroundColor=none;container=0;" parent="mLV1MDpqo3R6RIJ1vRHS-1" vertex="1">
                    <mxGeometry x="940" y="80" width="160" height="120" as="geometry"/>
                </mxCell>
                <mxCell id="mLV1MDpqo3R6RIJ1vRHS-38" value="&lt;font style=&quot;&quot;&gt;&lt;font face=&quot;Architects Daughter&quot; color=&quot;#596780&quot;&gt;massage: &quot;There is a problem with the response&quot;&lt;/font&gt;&lt;/font&gt;" style="text;strokeColor=none;align=left;fillColor=none;html=1;verticalAlign=top;whiteSpace=wrap;rounded=0;labelBackgroundColor=none;fontFamily=Helvetica;fontSize=10;fontColor=#000000;container=0;" parent="mLV1MDpqo3R6RIJ1vRHS-1" vertex="1">
                    <mxGeometry x="940" y="90" width="160" height="110" as="geometry"/>
                </mxCell>
                <mxCell id="mLV1MDpqo3R6RIJ1vRHS-39" value="&lt;h3&gt;&lt;br&gt;&lt;/h3&gt;" style="triangle;whiteSpace=wrap;html=1;verticalAlign=bottom;fillColor=#60a917;strokeColor=#2D7600;fontColor=#ffffff;sketch=0;dashed=0;fontStyle=0;container=0;" parent="mLV1MDpqo3R6RIJ1vRHS-1" vertex="1">
                    <mxGeometry x="960" y="600" width="120" height="120" as="geometry"/>
                </mxCell>
                <mxCell id="mLV1MDpqo3R6RIJ1vRHS-40" value="" style="edgeStyle=none;jumpSize=20;html=1;strokeWidth=2;fontFamily=Helvetica;fontSize=15;fontColor=#FF0000;fillColor=#008a00;strokeColor=#005700;exitX=0.937;exitY=0.516;exitDx=0;exitDy=0;exitPerimeter=0;" parent="mLV1MDpqo3R6RIJ1vRHS-1" source="mLV1MDpqo3R6RIJ1vRHS-31" target="mLV1MDpqo3R6RIJ1vRHS-39" edge="1">
                    <mxGeometry relative="1" as="geometry">
                        <mxPoint x="959" y="660" as="targetPoint"/>
                        <mxPoint x="869" y="660" as="sourcePoint"/>
                    </mxGeometry>
                </mxCell>
                <mxCell id="mLV1MDpqo3R6RIJ1vRHS-41" value="" style="edgeStyle=none;html=1;fontFamily=Helvetica;fontSize=8;fontColor=#FF0000;entryX=0.5;entryY=1;entryDx=0;entryDy=0;fillColor=#d80073;strokeColor=#A50040;strokeWidth=2;" parent="mLV1MDpqo3R6RIJ1vRHS-1" source="mLV1MDpqo3R6RIJ1vRHS-39" target="mLV1MDpqo3R6RIJ1vRHS-38" edge="1">
                    <mxGeometry relative="1" as="geometry">
                        <mxPoint x="1029" y="620" as="sourcePoint"/>
                        <mxPoint x="668.9999999999995" y="469.66999999999985" as="targetPoint"/>
                    </mxGeometry>
                </mxCell>
                <mxCell id="mLV1MDpqo3R6RIJ1vRHS-42" value="&lt;h3&gt;&lt;font style=&quot;font-size: 15px;&quot;&gt;Section: 4 - check if the request accepted&lt;/font&gt;&lt;/h3&gt;" style="text;strokeColor=none;align=center;fillColor=none;html=1;verticalAlign=middle;whiteSpace=wrap;rounded=0;labelBackgroundColor=none;fontColor=#FFFFFF;container=0;" parent="mLV1MDpqo3R6RIJ1vRHS-1" vertex="1">
                    <mxGeometry x="960" y="720" width="120" height="80" as="geometry"/>
                </mxCell>
                <mxCell id="mLV1MDpqo3R6RIJ1vRHS-43" value="" style="edgeStyle=none;html=1;strokeWidth=2;fillColor=#008a00;strokeColor=#005700;" parent="mLV1MDpqo3R6RIJ1vRHS-1" source="mLV1MDpqo3R6RIJ1vRHS-44" target="mLV1MDpqo3R6RIJ1vRHS-2" edge="1">
                    <mxGeometry relative="1" as="geometry"/>
                </mxCell>
                <mxCell id="mLV1MDpqo3R6RIJ1vRHS-44" value="&lt;h3&gt;&lt;br&gt;&lt;/h3&gt;" style="triangle;whiteSpace=wrap;html=1;verticalAlign=bottom;fillColor=#60a917;strokeColor=#2D7600;fontColor=#ffffff;sketch=0;dashed=0;fontStyle=0;container=0;" parent="mLV1MDpqo3R6RIJ1vRHS-1" vertex="1">
                    <mxGeometry x="1200" y="600" width="120" height="120" as="geometry"/>
                </mxCell>
                <mxCell id="mLV1MDpqo3R6RIJ1vRHS-45" value="" style="edgeStyle=none;html=1;entryX=0;entryY=0.5;entryDx=0;entryDy=0;strokeWidth=2;fillColor=#008a00;strokeColor=#005700;" parent="mLV1MDpqo3R6RIJ1vRHS-1" source="mLV1MDpqo3R6RIJ1vRHS-39" target="mLV1MDpqo3R6RIJ1vRHS-44" edge="1">
                    <mxGeometry relative="1" as="geometry">
                        <mxPoint x="1151.2222222222226" y="488.8888888888887" as="targetPoint"/>
                    </mxGeometry>
                </mxCell>
                <mxCell id="mLV1MDpqo3R6RIJ1vRHS-46" value="&lt;h3&gt;&lt;font style=&quot;font-size: 15px;&quot;&gt;Section: 5 - build the struct from the response&lt;/font&gt;&lt;/h3&gt;" style="text;strokeColor=none;align=center;fillColor=none;html=1;verticalAlign=middle;whiteSpace=wrap;rounded=0;labelBackgroundColor=none;fontColor=#FFFFFF;container=0;" parent="mLV1MDpqo3R6RIJ1vRHS-1" vertex="1">
                    <mxGeometry x="1200" y="720" width="120" height="80" as="geometry"/>
                </mxCell>
            </root>
        </mxGraphModel>
    </diagram>
</mxfile>